<?xml version="1.0" encoding="UTF-8"?>
<svg id="Layer_2" xmlns="http://www.w3.org/2000/svg" viewBox="0 0 202.4 441.1">
  <g id="Layer_1-2" data-name="Layer_1">
    <g id="jiSxip">
      <g>
        <path d="M101.01,29.04c-8.03-3.11-13.31-3.74-24.64-6.55-21.58-6.94-43.9-7.73-66.5-8.03-1.98-.02-4.09-.16-5.88-.88C.97,12.37-.53,8.81.17,5.75.98,2.24,3.77-.15,7.51,0c9.66.39,19.34.62,28.95,1.57,17.93,1.76,27.97,2.97,49.12,7.59,8.51,1.86,14.13,3.05,22.63,6.87.73.33,11.31,4.95,12.12,5.38l10.88,7.59c6.04,5.07,11.3,8.59,18.06,16.42,6.01,6.96,9.26,9.52,13.14,15.6,3.35,3.81,10.17,15.49,12.93,19.91l7.67,16.04c3.13,7,6.01,15.68,7.71,24.74,3.52,18.68,1.93,36.87-5.22,54.53-1.76,4.34-5.77,6.23-9.71,4.63-3.94-1.6-5.5-5.63-3.71-10.07,4.42-11,6.43-22.41,5.84-34.25-.54-10.96-1.4-20.12-5.78-30.39l-7.53-15.45-10.62-15.7c-3.78-5.68-8.66-11.86-14.16-18.17-5.42-6.13-16.32-14.68-25.01-21"/>
        <path d="M202.4,432.47c.16,4.25-3.51,8.57-7.33,8.63-1.6.02-6.52-4.06-6.35-5.54.24-2.03.3-4.47,1.48-5.91,1.25-1.53,3.69-2.08,5.22-2.85,2.32-.08,6.92,3.95,6.99,5.67Z"/>
        <path d="M111.26,261.62c-.29,4.75-3.69,8.47-7.46,8.14-1.99-.17-6.3-4.38-6.04-6.06.3-1.87.29-4.25,1.43-5.41,1.45-1.48,3.84-2.34,5.96-2.76,2.08-.41,6.23,4.09,6.11,6.08Z"/>
        <path d="M93.27,284.02c-.24,1.95-.3,4.35-1.46,5.64-1.32,1.48-3.68,2.26-5.73,2.76-1.93.46-6.55-4.06-6.29-5.95.27-1.94.38-4.29,1.54-5.61,1.31-1.49,3.69-2.04,5.1-2.74,2.6.05,7.06,4.13,6.84,5.9Z"/>
        <path d="M76.51,338.77c-.42,4.92-3.77,8.43-7.71,8.05-1.93-.18-6.1-4.31-5.8-5.93.35-1.93.39-4.4,1.6-5.55,1.53-1.45,4.05-2.16,6.25-2.52,1.89-.31,5.8,4.2,5.65,5.94Z"/>
        <path d="M81.83,367.07c-.23,4.59-3.59,8.33-7.37,8.23-1.91-.05-6.44-4.24-6.17-5.9.31-1.93.39-4.31,1.56-5.59,1.33-1.46,3.69-2.28,5.73-2.71,2.03-.43,6.35,4.05,6.25,5.97Z"/>
        <path d="M119.22,409.69c.08,4.31-3.62,8.67-7.34,8.64-1.87-.01-6.56-4.22-6.31-5.85.29-1.94.33-4.33,1.49-5.63,1.32-1.48,3.67-2.26,5.72-2.8,1.73-.46,6.41,3.96,6.44,5.64Z"/>
        <path d="M170.77,197.8c.1,4.25-3.54,8.5-7.24,8.47-1.91-.01-6.36-4.08-6.38-5.84-.05-4.26,3.46-8.34,7.29-8.46,2.01-.06,6.28,3.88,6.33,5.83Z"/>
        <path d="M152.03,219.89c-.05,4.58-3.54,8.53-7.43,8.42-1.78-.05-6.19-4.05-6.23-5.65-.12-4.3,3.55-8.55,7.38-8.56,1.88,0,6.31,4.07,6.29,5.79Z"/>
        <path d="M80.32,310.15c-.38,4.97-3.71,8.48-7.69,8.08-1.93-.19-6.11-4.35-5.81-5.96.35-1.92.42-4.34,1.62-5.53,1.45-1.44,3.89-2.18,6.01-2.54,2.02-.34,6.01,4.08,5.87,5.95Z"/>
        <path d="M145.52,422.47c-.36,1.37-.33,3.77-1.51,5.06-1.34,1.46-3.68,2.26-5.73,2.75-1.93.46-6.35-4.01-6.32-5.95.07-4.31,3.74-8.49,7.33-8.32,1.92.09,6.27,4.2,6.23,6.46Z"/>
        <path d="M173.55,430.05c-.35,1.26-.32,3.7-1.53,4.92-1.45,1.46-3.88,2.22-6.01,2.63-1.98.38-6.08-4.06-6-5.96.18-4.34,3.58-8.28,7.14-8.29,2.01,0,6.49,4.18,6.4,6.7Z"/>
        <path d="M131.77,240.94c-.53,1.82-.54,4.18-1.72,5.32-1.49,1.44-3.88,2.25-6,2.63-1.93.35-6.29-4.25-6-5.96.33-1.92.45-4.28,1.64-5.53,1.35-1.44,3.71-2.26,5.76-2.61,2.14-.37,6.21,4.08,6.32,6.16Z"/>
        <path d="M96.77,391.57c.04,4.33-3.37,8.31-7.21,8.42-1.86.05-6.53-4-6.34-5.75.21-1.96.25-4.36,1.4-5.67,1.3-1.49,3.66-2.29,5.71-2.82,1.9-.5,6.42,3.89,6.45,5.83Z"/>
      </g>
    </g>
  </g>
</svg>