<?xml version="1.0" encoding="UTF-8"?>
<svg id="Layer_2" xmlns="http://www.w3.org/2000/svg" viewBox="0 0 96.14 97.31">
  <g id="Layer_1-2" data-name="Layer_1">
    <g id="_x30_Ryjei">
      <g>
        <path d="M40.71,31.7c-.03,5.29-3.65,8.99-8.94,9.03-7.59.05-15.18.04-22.77,0C3.63,40.68.02,36.98.01,31.59,0,24.09,0,16.6.01,9.11.02,3.74,3.7.02,9.03.02,16.63,0,24.21,0,31.81.02c5.17,0,8.87,3.73,8.9,8.91.03,3.82.01,7.64.01,11.46s.02,7.54,0,11.31Z"/>
        <path d="M94.56,9.04c.02,7.54.02,15.09,0,22.63-.02,5.35-3.69,9.01-9.07,9.05-3.77.03-7.54.01-11.31.01s-7.44.02-11.17-.01c-5.47-.03-9.14-3.66-9.16-9.11-.03-7.49-.04-14.99,0-22.48C53.87,3.66,57.54.02,63,.02c7.49-.01,14.98-.01,22.47,0,5.36,0,9.07,3.68,9.09,9.03Z"/>
        <path d="M40.71,64.27c.01,3.72,0,7.44,0,11.16s.01,7.54,0,11.31c-.03,5.26-3.71,8.98-8.98,9-7.59.03-15.18.03-22.77,0-5.24-.02-8.94-3.77-8.95-9.03C0,79.16,0,71.63.01,64.08c.01-5.34,3.7-9.06,9.06-9.07,7.49-.03,14.98-.03,22.47,0,5.56.02,9.15,3.67,9.17,9.25Z"/>
        <path d="M96.13,75.98c-.02,2.07-1.55,3.71-3.73,3.74-4.01.07-8.03.03-12.05.03h-1.79v1.71c0,3.86.02,7.73,0,11.6-.01,2.62-1.51,4.25-3.83,4.24-2.21-.01-3.73-1.67-3.75-4.18-.04-3.87-.01-7.74-.01-11.61v-1.76h-2.33c-3.67,0-7.34.02-11.02,0-2.51-.02-4.16-1.53-4.19-3.75-.04-2.27,1.65-3.82,4.24-3.83,3.82-.03,7.64-.01,11.46-.01h1.75c.03-.63.08-1.15.08-1.67.01-3.97,0-7.93.01-11.9.01-1.6.67-2.86,2.12-3.59,1.28-.63,2.57-.56,3.78.22,1.26.83,1.71,2.05,1.7,3.53-.02,3.87,0,7.74,0,11.61v1.8h11.99c.64,0,1.28-.02,1.91.02,2.18.14,3.68,1.71,3.67,3.8Z"/>
      </g>
    </g>
  </g>
</svg>